<?xml version="1.0" encoding="utf-8"?>
<!-- Generator: Adobe Illustrator 17.0.2, SVG Export Plug-In . SVG Version: 6.00 Build 0)  -->
<!DOCTYPE svg PUBLIC "-//W3C//DTD SVG 1.1//EN" "http://www.w3.org/Graphics/SVG/1.1/DTD/svg11.dtd">
<svg version="1.1" xmlns="http://www.w3.org/2000/svg" xmlns:xlink="http://www.w3.org/1999/xlink" x="0px" y="0px" width="4000px"
	 height="2000px" viewBox="0 0 4000 2000" enable-background="new 0 0 4000 2000" xml:space="preserve">
<g id="Layer_1">
	<g id="Layer_3">
	</g>
</g>
<g id="Layer_4_copy">
	<polygon fill="#394863" points="2000,0 0,0 0,2000 2000,2000 4000,2000 4000,0 	"/>
	<path opacity="0.5" fill="#5679DE" d="M3934.21,292.65c-24.27-14.4-57.59,1.11-83.36,3.44c-16.4,1.479-34.317-0.674-50.321,2.744
		c-13.522,2.888-28.301,2.708-41.15-3.338c-5.821-2.739-14.459-3.858-19.688-7.415c-13.614-9.263-25.917-20.693-39.602-30.083
		c-21.386-14.674-43.114-27.335-66.525-38.796c-10.681-5.229-18.783-12.783-27.712-20.473
		c-13.638-11.747-29.652-17.339-46.178-23.682c-23.015-8.834-44.111-21.58-67.021-30.479c-20.13-7.819-41.314-13.969-61.805-20.73
		c-30.132-9.941-60.947-21.411-93.049-21.44c-17.248-0.016-34.509,0.332-51.762,0.332c-22.497,0-44.507-0.403-66.781,3.609
		c-33.131,5.967-63.515,19.338-95.8,27.925c-35.648,9.483-69.184,24.068-104.889,33.735c-12.636,3.018-25.295,5.934-37.978,8.75
		c-11.039,3.366-21.797,7.473-32.273,12.322c-25.842,9.683-54.149,13.676-81.026,19.695c-26.268,5.883-51.34,4.022-77.926,5.552
		c-22.748,1.309-45.978,6.784-68.809,4.89c-23.761-1.971-47.485-4.392-71.266-6.135c-17.234-1.263-34.351-1.34-50.157-9.115
		c-13.875-6.826-26.324-13.665-41.559-17.424c-21.802-5.38-44.339-8.905-66.834-8.853c-38.87,0.1-71.29,16-108.08,25.45
		c-21.021,5.4-43.473,9.323-65.248,9.056c-13.181-0.162-23.844-5.313-36.344-8.284c-19.492-4.633-41.352-1.903-61.239-1.903
		c-22.386,0-44.772,0-67.158,0c-23.298,0-46.156-1.66-69.263-2.976c-15.311-0.872-29.508-6.463-44.961-6.269
		c-10.384,0.13-19.988,0.603-30.349,2.194c-30.398,4.668-62.306,4.599-91.238,16.31c-11.825,4.787-22.003,9.116-34.813,10.893
		c-8.717,0.688-17.372,1.848-25.963,3.488c-9.277,1.822-17.839,6.932-27.503,7.394c-9.793,0.468-20.12-4.141-29.213-7.224
		c-22.487-7.625-45.762-17.379-70.017-15.109c-38.25,3.57-74.52,2.06-112.01-7.57c-36.79-9.45-69.21-25.35-108.08-25.45
		c-34.73-0.08-71.84,8.89-104.7,19.81c-33.15,11.02-60.2,34.03-93.68,44.45c-17.94,5.58-36.39,9.41-54.16,15.56
		c-14.9,5.16-28.32,13.93-44.4,15.01c-28.38,1.91-63.3-8.69-90.78-15.55c-30.12-7.53-58.83-14.46-89.75-18.2
		c-62.31-7.54-115.22-44.78-174.13-63.51c-32.8-10.43-59.62-7.67-92.53-0.13c-29.82,6.84-58.78,11.84-88.24,20.68
		c-59.74,17.91-120.13-7.15-179.19,12.75c-56.79,19.14-101.29,61.01-161.51,72.74c-60.19,11.73-125.73,20.33-187.04,14.8
		c-25.77-2.33-59.09-17.84-83.36-3.44C52.683,300.424,34.172,308.049,0,310.588V2000h2000h2000V310.588
		C3966,308.049,3947.316,300.424,3934.21,292.65z"/>
	<path opacity="0.5" fill="#394863" d="M3956.5,594.35c-11.646-6.554-23.17-13.326-34.923-19.688
		c-20.005-10.828-40.642-18.837-61.952-26.64c-13.624-4.989-27.498-10.341-42.268-8.646c-19.153,2.197-38.391,12.471-54.804,21.963
		c-8.523,4.929-16.69,11.637-26.669,12.997c-8.883,1.211-17.897-0.42-26.793-0.57c-11.637-0.195-17.594-6.695-26.917-12.733
		c-13.508-8.748-22.102-20.656-33.02-32.261c-12.402-13.183-26.024-23.379-41.106-32.346c-24.858-14.78-59.83-15.252-87.741-12.039
		c-25.609,2.948-46.292,11.535-69.717,22.059c-16.995,7.635-29.973,15.711-42.735,28.94c-11.976,12.415-33.696,20.018-48.9,27.989
		c-34.663,18.174-70.539,34.471-108.744,43.605c-12.976,3.102-25.669,7.261-38.116,12.049c-5.937,2.284-11.816,4.716-17.663,7.221
		c-4.824,2.067-13.452,4.048-17.252,7.616c-5.221,4.903-4.515,8.842-13.345,10.727c-6.148,1.313-12.545,1.09-18.792,1.18
		c-7.204,0.104-10.816-3.081-18.021-2.979c-5.994,0.085-11.997-0.01-17.991-0.01c-6.949,0-13.898,0.004-20.847,0
		c-4.715-0.003-10.617,1.051-15.226,0.155c-3.242-0.63-5.55-2.619-8.777-3.31c-4.968-1.064-10.102,0.96-15.156-0.443
		c-3.81-1.057-7.367-3.653-11.334-4.735c-7.441-2.03-13.986-5.385-21.466-7.491c-13.206-3.717-27.384-4.24-40.916-5.766
		c-12.978-1.463-25.45-4.637-38.54-5.413c-11.195-0.664-21.747-2.074-32.798-3.823c-18.232-2.886-36.392-1.297-54.69-2.765
		c-12.181-0.977-24.103-3.566-36.245-4.746c-30.309-2.944-61.473-5.488-91.902-3.124c-42.917,3.335-87.664,8.514-129.777,17.372
		c-33.457,7.037-65.593,12.351-99.935,12.066c-33.283-0.276-66.535-0.804-99.779-1.224c-15.059-0.19-25.582-3.196-38.413-11.408
		c-18.521-11.853-38.889-20.49-59.614-27.722c-15.211-5.308-30.814-8.619-44.466-17.362c-12.071-7.731-27.628-9.032-37.952-19.529
		c-7.101-7.22-14.141-14.226-21.071-21.077c-16.335-16.149-30.265-33.869-49.605-46.484c-12.689-8.276-30.923-16.779-46.286-19.603
		c-15.717-2.889-31.595-2.579-47.396-6.658c-17.934-4.628-36.336-2.832-54.752-2.92c-14.735-0.07-28.769,1.013-43.275,3.678
		c-17.006,3.124-30.8,11.224-46.692,17.216c-10.822,4.08-17.832,11.614-27.162,18.632c-5.725,4.306-11.881,7.962-18.05,11.583
		c-17.378,10.201-31.555,19.153-39.813,38.003c-7.44,16.982-27.156,19.221-43.433,24.059c-21.308,6.334-42.795,12.106-63.846,19.278
		c-19.928,6.79-42.89,14.33-60.076,26.844c-8.61,6.27-18.16,10.33-28.66,12.18c-25.77,7.07-53.48,7.96-78.64,16.91
		c-22.19,7.89-41.82,21.76-59.71,36.79c-37.67,31.65-69.4,68.86-110.81,96.12c-44.03,28.98-96.2,54.97-150.02,46.53
		c-25.68-4.03-53.15-8.05-77.26-18.14c-22.18-9.28-42.7-22.05-62.97-34.86c-28.72-18.17-56.83-36.89-84.15-57.12
		c-22.68-16.8-44.75-34.64-71.83-43.89c-31.51-10.77-64.57-19.4-94.93-33.14c-26.88-12.16-52.11-23.57-80.97-30.47
		c-62.9-15.05-115.39-47.61-171.85-77.74c-59.25-31.63-114.84-13.57-175.39,3.23c-63.11,17.52-129.74,15.03-194.65,13.37
		c-31.21-0.8-61.17-0.68-90.74,10.58c-25.88,9.85-49.62,24.4-73.66,37.93c-13.829,7.783-28.515,11.119-43.5,12.573V2000h2000h2000
		V606.923C3985,605.469,3970.329,602.133,3956.5,594.35z"/>
	<path opacity="0.5" fill="#7D65BE" d="M3949.15,720.13c-52.23-15.01-110.46-12.9-164.26-18.2
		c-54.58-5.38-111.33-13.33-164.07-28.72c-50.23-14.66-95.37-42.42-142.03-65.33c-51.9-25.5-106.62-44.38-160.42-65.32
		c-31.344-12.2-61.547-27.076-92.579-40.016c-7.743-3.229-15.535-6.343-23.403-9.255c-6.711-2.484-15.674-7.383-22.887-7.519
		c-4.867-0.092-7.882,3.016-12.434,4.055c-7.307,1.669-14.346-2.179-21.452-3.143c-12.391-1.68-24.57-3.268-37.264-2.963
		c-18.016,0.433-34.503,6.473-52.575,6.049c-22.512-0.529-43.117,7.993-65.552,9.001c-19.189,0.862-37.263,8.702-56.478,11.238
		c-11.272,1.488-22.68,3.62-34.071,3.919c-10.799,0.284-21.358-0.723-32.166,0.443c-40.719,4.395-80.523,11.796-121.596,11.323
		c-14.191-0.163-29.04,5.134-42.951,2.482c-13.207-2.518-26.144-2.524-39.558-4.58c-7.686-1.178-15.362-2.97-23.046-4.01
		c-4.103-0.556-10.57-3.206-14.441-2.978c-1.979,0.117-3.958,0.223-5.938,0.32c-4.394-0.993-8.041-3.549-12.071-5.488
		c-7.672-3.692-15.691-3.824-23.943-6.001c-11.461-3.023-23.886-0.308-34.967,2.343c-22.152,5.301-44.583,10.022-66.505,16.406
		c-29.561,8.609-59.674,20.473-86.921,34.444c-31.906,16.36-67.931,26.588-102.086,37.029c-32.4,9.905-65.916,9.173-99.438,13.298
		c-15.115,1.86-29.152,6.364-44.471,7.715c-25.378,2.237-51.323-0.195-75.978,6.182c-24.075,6.227-48.769,9.142-73.601,9.791
		c-25.135-0.657-52.106-3.447-80.72-11.755c-41.34-3.1-80.61-8.29-120.74-19.51c-35.81-10.01-63.14-31.76-94.62-50.26
		c-33.94-19.95-73.8-28.14-112.41-33.23c-42.15-5.56-84.61-11.08-126.83-15.86c-78.75-8.9-164.27-20.98-235.42-57.47
		c-34.51-17.7-70.75-14.12-107.47-5.97c-39.09,8.66-78.43,18.94-117.95,25.32c-29.76,0.95-58.29,4.72-87.73,8.78
		c-28.55,3.93-57.64,2.18-85.6,9.89c-51.77,14.27-98.94,40.55-148.88,59.98c-53.8,20.94-108.52,39.82-160.42,65.32
		c-46.66,22.91-91.8,50.67-142.03,65.33c-52.74,15.39-109.49,23.34-164.07,28.72c-53.8,5.3-112.03,3.19-164.26,18.2
		c-16.361,4.7-33.623,4.952-50.85,4.429V2000h2000h2000V724.559C3983,725.082,3965.511,724.83,3949.15,720.13z"/>
	<path opacity="0.5" fill="#648BE8" d="M3914.84,995.18c-28.91-13.6-55.19-21.4-87.11-14.55c-26.31,5.64-53.94,9.22-77.64-6.41
		c-25.28-16.68-45.06-40.31-69.21-58.49c-48.36-36.41-104.1-68.24-158.42-94.91c-59.11-29.03-116.65-32.52-181.15-25.28
		c-29.7,3.33-60.71,7.02-90.32,0.87c-30.53-6.34-58.36-24.17-86.69-36.56c-58.64-25.66-116.58-38.06-180.48-27.8
		c-29.84,4.8-58.13,15.27-87.6,21.62c-32.03,6.89-63.97,13.44-95.78,21.35c-37.81,9.4-74.93,18.81-113.87,22.07
		c-41.74,3.51-83.05,8.95-124.53,14.71c-83.29,11.56-167.1,3.36-249.24,21.59c-31.655,7.022-65.163,14.323-97.778,11.26
		c-11.501-1.08-22.823-3.331-34.402-3.791c-16.304-0.648-31.776,2.549-47.91,3.1c-27.728,0.948-54.429-3.009-81.248,5.856
		c-29.823,9.859-62.208,11.315-92.059,21.061c-13.128,4.286-25.706,1.758-39.084,3.529c-14.945,1.978-28.596,5.524-43.782,5.461
		c-33.226-0.137-64.587-4.954-96.148-15.226c-15.867-5.164-32.79-6.35-48.71-11.691c-6.553-2.199-12.367-6.125-18.46-9.299
		c-38.781-20.202-88.529-20.595-131.339-22.72c-48.006-2.383-96.229-2.507-143.92-9.13c-41.48-5.76-82.79-11.2-124.53-14.71
		c-38.94-3.26-76.06-12.67-113.87-22.07c-31.81-7.91-63.75-14.46-95.78-21.35c-29.47-6.35-57.76-16.82-87.6-21.62
		c-63.9-10.26-121.84,2.14-180.48,27.8c-28.33,12.39-56.16,30.22-86.69,36.56c-29.61,6.15-60.62,2.46-90.32-0.87
		c-64.5-7.24-122.04-3.75-181.15,25.28c-54.32,26.67-110.06,58.5-158.42,94.91c-24.15,18.18-43.93,41.81-69.21,58.49
		c-23.7,15.63-51.33,12.05-77.64,6.41c-31.92-6.85-58.2,0.95-87.11,14.55c-20.2,9.497-43.748,36.834-85.16,37.816V2000h2000h2000
		v-967.004C3958.588,1032.014,3935.04,1004.677,3914.84,995.18z"/>
	<path opacity="0.5" fill="#7C64BD" d="M3957.09,846.76c-61.17-11.19-124.5-26.45-184.41-4.59
		c-61.05,22.28-127.96,32.49-191.76,44.04c-66.38,12.01-132.19,21.91-199.76,23.01c-65.32,1.06-130.45-2.27-195.66-5.15
		c-67.52-2.98-128.14,14.52-190.58,38.97c-59.26,23.21-116.04,56.75-179.64,66.4c-65.53,9.94-133.63,5.4-199.64,3.52
		c-69.52-1.98-138.92-6.96-208.42-9.56c-67.79-2.53-140.07-9.36-206.4,6.79c-39.365,9.581-130.58,14.073-200.82,13.534
		c-70.24,0.54-161.455-3.953-200.82-13.534c-66.33-16.15-138.61-9.32-206.4-6.79c-69.5,2.6-138.9,7.58-208.42,9.56
		c-66.01,1.88-134.11,6.42-199.64-3.52c-63.6-9.65-120.38-43.19-179.64-66.4c-62.44-24.45-123.06-41.95-190.58-38.97
		c-65.21,2.88-130.34,6.21-195.66,5.15c-67.57-1.1-133.38-11-199.76-23.01c-63.8-11.55-130.71-21.76-191.76-44.04
		c-59.91-21.86-123.24-6.6-184.41,4.59c-13.444,2.459-28.155,2.356-42.91,2.352V2000h2000h2000V849.112
		C3985,849.116,3970.534,849.219,3957.09,846.76z"/>
	<path opacity="0.5" fill="#9E74C8" d="M3922.251,1176.342c-29.84-5.57-59.515-11.861-89.845-14.131
		c-33.34-2.5-64.598,1.969-97.578,5.609c-64.58,7.13-133.109,0.13-193.879-23.18c-58.02-22.25-110.489-58.51-166.049-86.17
		c-55.84-27.81-113.73-50.24-177.02-49.41c-35.322,0.463-71.011,1.935-106.253,4.341c-11.717,0.8-23.14,2.508-34.93,1.725
		c-10.483-0.696-21.176-3.432-31.675-3.316c-6.67,0.074-9.999-1.751-16.267-3.812c-6.948-2.285-13.052-0.844-19.801-2.012
		c-6.456-1.117-11.158-3.289-18.007-3.155c-4.098,0.08-7.966,0.354-11.932-0.678c-9.096-2.368-17.327-2.192-27.013-2.343
		c-6.54-0.102-11.55-2.266-17.922-3.145c-5.873-0.81-11.628,1.046-17.473-0.512c-10.044-2.679-19.73-1.806-30.601-2.263
		c-16.989-0.714-33.664-6.451-51.208-6.15c-11.453,0.197-21.321-2.454-32.565-2.984c-10.42-0.491-21.054,0.246-31.498,0.246
		c-27.099,0-54.198,0-81.297,0c-11.79,0-24.198-1.162-35.891,0.576c-10.44,1.552-21.201,1.094-31.492,2.944
		c-14.532,2.613-28.177,1.658-42.874,2.166c-10.099,0.349-19.471,2.911-29.564,3.069c-14.645,0.228-29.675,3.823-43.955,6.882
		c-10.641,2.28-21.001,0.997-31.599,2.773c-11.91,1.995-23.679,4.12-35.628,5.945c-13.591,2.076-24.955,9.258-37.862,13.202
		c-11.193,3.42-23.429,5.384-34.873,8.088c-9.624,2.275-19.535,1.013-28.673,4.953c-10.511,4.532-21.037,8.182-31.743,12.205
		c-45.707,17.172-93.587,28.825-141.012,40.577c-35.31,8.75-44.716,14.861-76.886,32.411c-16.846,9.195-40.96,13.841-67.384,15.677
		c-26.424-1.836-50.538-6.482-67.384-15.677c-32.17-17.55-41.576-23.661-76.886-32.411c-36.41-9.02-72.64-18.61-108.66-29.1
		c-71.75-20.91-140.22-45.58-208.71-75.32c-66.64-28.93-137.36-43.98-209.72-49.44c-17.35-1.31-33.05-6.78-50.01-9.63
		c-13.52-2.28-28.14-1.21-41.83-1.35c-26.83-0.27-50.24,9.02-73.29,22.13c-52.44,29.83-105.48,62.18-166.76,69.84
		c-32.31,4.04-65.73-1.58-98.13-2.55c-32.16-0.97-64.35-3.48-96.5-3.9c-63.29-0.83-121.18,21.6-177.02,49.41
		c-55.56,27.66-108.029,63.92-166.049,86.17c-60.77,23.31-129.299,30.31-193.879,23.18c-32.98-3.64-64.238-8.109-97.578-5.609
		c-30.33,2.27-60.005,8.561-89.845,14.131c-22.776,4.26-45.865,18.33-77.749,22.088V2000h2000h2000v-801.57
		C3968.116,1194.672,3945.027,1180.602,3922.251,1176.342z"/>
	<path opacity="0.5" fill="#3455BD" d="M3955.02,86.81c-23.83,0.36-47.32-1.2-71.06-3.02c-20.79-1.6-44.62-4.86-64.37,3.52
		c-37.81,11.6-78.47,18.69-117.45,25.37c-41.39,7.08-80.86,17.16-121.73,26.63c-79.98,18.54-160.86,32.51-240.28,53.32
		c-6.61,2.27-13.28,4.35-20.01,6.25c-21.42,4.2-43.5-0.91-65.24,3.19c-20.65,3.88-41.42,11.08-62.68,9.05
		c-25.86,0.55-48.83,5.61-74.97,1.77c-24.84-3.64-49.81-6.95-74.34-12.39c-48.92-10.83-91.38-33.91-137.08-52.91
		c-45.06-18.73-91.68-29.15-139.27-39.5c-26.24-5.71-52.7-10.93-79.52-13.02c-28.12-2.19-56.26,1.26-84.37-0.67
		c-48.71-3.37-91.18-30.23-140.25-32.58c-51.9-2.48-102.69,11.07-154.34,13.73c-52.98,2.73-105.47-1.22-158.09-7.13
		c-52.096-5.856-99.404-5.477-149.97,2.863c-50.566-8.339-97.874-8.719-149.97-2.863c-52.62,5.91-105.11,9.86-158.09,7.13
		c-51.65-2.66-102.44-16.21-154.34-13.73c-49.07,2.35-91.54,29.21-140.25,32.58c-28.11,1.93-56.25-1.52-84.37,0.67
		c-26.82,2.09-53.28,7.31-79.52,13.02c-47.59,10.35-94.21,20.77-139.27,39.5c-45.7,19-88.16,42.08-137.08,52.91
		c-24.53,5.44-49.5,8.75-74.34,12.39c-26.14,3.84-49.11-1.22-74.97-1.77c-21.26,2.03-42.03-5.17-62.68-9.05
		c-21.74-4.1-43.82,1.01-65.24-3.19c-6.73-1.9-13.4-3.98-20.01-6.25c-79.42-20.81-160.3-34.78-240.28-53.32
		c-40.87-9.47-80.34-19.55-121.73-26.63c-38.98-6.68-79.64-13.77-117.45-25.37c-19.75-8.38-43.58-5.12-64.37-3.52
		c-23.74,1.82-47.23,3.38-71.06,3.02C30.015,86.591,14.965,86.243,0,87.03V2000h2000h2000V87.03
		C3985,86.243,3969.985,86.591,3955.02,86.81z"/>
	<path opacity="0.5" fill="#7455AA" d="M3903.95,1468.99c-64.505-8.296-127.21-23.65-191.78-31.05
		c-29.37-3.36-55.64-6.36-82.01-20.68c-25.69-13.96-47.85-25.45-75.95-33.95c-27.98-8.47-53.41-14.65-82.55-8.44
		c-32.25,6.87-64.63,13.05-96.99,19.41c-30.59,6.02-61.6,10.07-91.58,18.72c-30.26,8.74-56.49,5.5-84.93-7.32
		c-54.48-24.55-121.63-38.27-181.18-42.44c-31.5-2.21-59.15,3.49-89.27,11.77c-30.36,8.35-62.16,10.43-93.57,9.47
		c-29.09-0.89-58.88-8.9-86.63-17.23c-28.01-8.41-63.24-4.41-91.82-0.39c-29.36,4.14-58.4,7.78-87.41,13.99
		c-31.87,6.83-60.7,19.54-91.3,30.23c-30.1,10.51-59.97,22.11-90.3,31.9c-31.21,10.07-64.66,13.92-96.76,20.36
		c-33.67,6.75-66.25,8.69-100.4,11.24c-15.44,1.15-30.93,1.4-46.4,1.81c-16.01,0.41-31.14,4.26-47.02,4.93
		c-31.751,1.331-64.326,0.514-96.1-1.929c-31.774,2.443-64.349,3.259-96.1,1.929c-15.88-0.67-31.01-4.52-47.02-4.93
		c-15.47-0.41-30.96-0.66-46.4-1.81c-34.15-2.55-66.73-4.49-100.4-11.24c-32.1-6.44-65.55-10.29-96.76-20.36
		c-30.33-9.79-60.2-21.39-90.3-31.9c-30.6-10.69-59.43-23.4-91.3-30.23c-29.01-6.21-58.05-9.85-87.41-13.99
		c-28.58-4.02-63.81-8.02-91.82,0.39c-27.75,8.33-57.54,16.34-86.63,17.23c-31.41,0.96-63.21-1.12-93.57-9.47
		c-30.12-8.28-57.77-13.98-89.27-11.77c-59.55,4.17-126.7,17.89-181.18,42.44c-28.44,12.82-54.67,16.06-84.93,7.32
		c-29.98-8.65-60.99-12.7-91.58-18.72c-32.36-6.36-64.74-12.54-96.99-19.41c-29.14-6.21-54.57-0.03-82.55,8.44
		c-28.1,8.5-50.26,19.99-75.95,33.95c-26.37,14.32-52.64,17.32-82.01,20.68c-64.57,7.4-127.275,22.754-191.78,31.05
		c-38.137,4.905-68.601,4.375-96.05,3.729V2000h2000h2000v-527.281C3972.551,1473.365,3942.087,1473.895,3903.95,1468.99z"/>
	<path opacity="0.5" fill="#9359A8" d="M3988.49,1674.82c-31.42-7.2-60.92-21.215-92.28-28.165
		c-64.96-14.39-132.21-11.183-196.75-27.443c-64.04-16.14-126.91-37.121-190.85-53.851c-64.93-16.99-130.47-31.386-195.85-46.516
		c-31.86-7.38-63.79-14.478-95.99-20.218c-33.06-5.88-64.95-6.444-97.48-15.904c-5.182-1.507-10.335-3.11-15.459-4.804
		c-43.176-14.275-84.213-34.804-122.553-59.164c-16.986-10.793-33.406-22.221-48.835-35.13c-6.257-5.235-13.049-9.019-20.093-13.088
		c-4.863-2.809-9.437-6.624-14.609-8.815c-4.666-1.976-9.884-2.113-14.54-4.131c-4.715-2.044-9.111-4.513-14.136-5.99
		c-16.72-4.914-32.534-2.162-49.537-4.346c-23.301-2.992-46.018-5.551-69.568-5.392c-9.584,0.065-19.3-0.627-28.867-0.166
		c-8.658,0.418-16.926,3-25.593,3.31c-16.189,0.579-32.648,0.451-48.597-2.284c-14.876-2.551-24.046-11.099-36.682-18.883
		c-13.955-8.598-26.592-17.125-41.54-24.04c-5.015-2.32-10.22-7.05-15.541-8.499c-4.655-1.268-9.831-0.433-14.573-0.491
		c-22.076-0.272-41.376,9.313-62.036,16.284c-11.812,3.986-23.126,9.564-35.287,12.502c-9.595,2.318-18.729,2.605-27.665,7.096
		c-10.302,5.177-20.587,10.444-31.277,14.789c-10.111,4.11-20.822,5.957-30.964,9.778c-6.498,2.448-11.064,6.452-16.364,10.738
		c-7.915,6.402-17.042,10.851-25.956,15.679c-40.943,22.174-82.048,44.228-120.91,69.954c-36.21,23.97-78.05,36.49-111.68,63.7
		c-16.634,13.453-46.032,15.3-76.43,15.705c-30.398-0.405-59.796-2.252-76.43-15.705c-33.63-27.21-75.47-39.73-111.68-63.7
		c-75.15-49.75-158.38-85.61-233.55-135.61c-37.25-24.77-78.24-46.36-116.81-69.23c-33.53-19.89-73.08-37.48-112.95-34.93
		c-29.83,1.91-59.21,17.79-83.03,34.95c-22.61,16.28-47.59,28.52-70.27,44.58c-52.89,37.42-102.01,80.371-155.23,117.211
		c-48.07,33.28-102.93,61.722-159.34,78.122c-32.53,9.46-64.42,10.024-97.48,15.904c-32.2,5.74-64.13,12.838-95.99,20.218
		c-65.38,15.13-130.92,29.526-195.85,46.516c-63.94,16.73-126.81,37.711-190.85,53.851c-64.54,16.26-131.79,13.053-196.75,27.443
		c-31.36,6.95-60.86,20.965-92.28,28.165c-3.73,0.855-7.582,1.328-11.51,1.545V2000h2000h2000v-323.635
		C3996.072,1676.148,3992.22,1675.675,3988.49,1674.82z"/>
	<path opacity="0.5" fill="#3D7DE1" d="M3974.62,1736.22c-33.82,4.39-68.35,1.08-101.78-4.89c-64.24-11.46-125.55-33.28-190.5-41.47
		c-30.31-3.83-61.22-6.2-91-13.28c-32.44-7.71-61.55-13.85-95.12-13.76c-63.96,0.19-129.58-6.48-190.55-26.96
		c-60.55-20.33-113.4-57.01-176.53-71.28c-30.83-6.97-61.15-6.78-92.41-3.29c-35.54,3.97-70.1,5.11-105.84,4.99
		c-33.05-0.11-66.09-0.01-99.14,0.23c-33.49,0.25-66.39-6.66-99.19-12.6c-29.93-5.42-60.2-8.13-89.66-16.03
		c-31.19-8.37-61.24-20.58-90.09-35.03c-61.27-30.68-123.38-37.01-190.4-21.66c-67.57,15.47-132.386,36.901-189.69,75.86
		c-98.143,66.725-144.52,80.387-172.72,82.993c-28.2-2.606-74.577-16.268-172.72-82.993c-57.304-38.959-122.12-60.39-189.69-75.86
		c-67.02-15.35-129.13-9.02-190.4,21.66c-28.85,14.45-58.9,26.66-90.09,35.03c-29.46,7.9-59.73,10.61-89.66,16.03
		c-32.8,5.94-65.7,12.85-99.19,12.6c-33.05-0.24-66.09-0.34-99.14-0.23c-35.74,0.12-70.3-1.02-105.84-4.99
		c-31.26-3.49-61.58-3.68-92.41,3.29c-63.13,14.27-115.98,50.95-176.53,71.28c-60.97,20.48-126.59,27.15-190.55,26.96
		c-33.57-0.09-62.68,6.05-95.12,13.76c-29.78,7.08-60.69,9.45-91,13.28c-64.95,8.19-126.26,30.01-190.5,41.47
		c-33.43,5.97-67.96,9.28-101.78,4.89c-8.432-1.094-16.897-1.682-25.38-1.977V2000h2000h2000v-265.757
		C3991.517,1734.538,3983.052,1735.126,3974.62,1736.22z"/>
	<path opacity="0.5" fill="#A15B94" d="M3986.12,1366.65c-40.57,8.72-84.82,7.29-126.05,5.28c-43.29-2.12-86.58-7.9-128.47-19.22
		c-42.06-11.38-81.22-32.65-120.56-50.89c-11.98-3.63-24.19-6.24-36.61-7.83c-29.03-6.56-54.26-18.86-84.47-21.59
		c-30.98-2.81-63.23-4.04-94.28-1.94c-30.12,2.04-59.47,9.88-89.3,14.1c-34.2,4.83-68.34,9.86-102.5,14.96
		c-66.38,9.91-132.84,9.06-199.68,12.72c-31.13,1.71-62.46,2.3-93.49-1.27c-32.54-3.75-62.87-14.5-94.42-22.5
		c-27.49-6.98-55.71-10.3-82.76,0.03c-30.69,11.72-60.38,21.67-92.51,28.89c-63.1,14.18-128.36,22.05-192.61,29.12
		c-30.16,3.31-60.52,4.57-90.64,8.32c-32.11,4-61.89,15.33-93.51,20.94c-29.5,5.23-59.83-0.11-89.27,5.43
		c-14.26,2.69-27.34,8.98-41.39,12.23c-16.03,3.72-32.6,1.68-48.87,1.65c-28.226-0.054-56.487-0.32-84.73-0.129
		c-28.243-0.192-56.504,0.075-84.73,0.129c-16.27,0.03-32.84,2.07-48.87-1.65c-14.05-3.25-27.13-9.54-41.39-12.23
		c-29.44-5.54-59.77-0.2-89.27-5.43c-31.62-5.61-61.4-16.94-93.51-20.94c-30.12-3.75-60.48-5.01-90.64-8.32
		c-64.25-7.07-129.51-14.94-192.61-29.12c-32.13-7.22-61.82-17.17-92.51-28.89c-27.05-10.33-55.27-7.01-82.76-0.03
		c-31.55,8-61.88,18.75-94.42,22.5c-31.03,3.57-62.36,2.98-93.49,1.27c-66.84-3.66-133.3-2.81-199.68-12.72
		c-34.16-5.1-68.3-10.13-102.5-14.96c-29.83-4.22-59.18-12.06-89.3-14.1c-31.05-2.1-63.3-0.87-94.28,1.94
		c-30.21,2.73-55.44,15.03-84.47,21.59c-12.42,1.59-24.63,4.2-36.61,7.83c-39.34,18.24-78.5,39.51-120.56,50.89
		c-41.89,11.32-85.18,17.1-128.47,19.22c-41.23,2.01-85.48,3.44-126.05-5.28c-4.502-0.97-9.167-1.239-13.88-1.246V2000h2000h2000
		v-634.596C3995.287,1365.411,3990.622,1365.68,3986.12,1366.65z"/>
	<path opacity="0.5" fill="#6551AB" d="M3940.09,1851.43c-67.23-5.74-133.6-19.62-200.69-27.09c-29.6-3.3-59.76-8.46-89.07-13.84
		c-31.45-5.78-59.45-21.66-91.15-26.77c-63.35-10.21-118.84-40.5-179.78-58.97c-29.36-8.9-59.1-16.79-87.6-28.29
		c-29.61-11.94-55.11-30.27-82.63-46.07c-24.34-13.98-51.07-22.77-76.17-35.17c-24.96-12.34-49.49-24.87-74.31-37.34
		c-24.84-12.48-51.64-23.42-77.09-34.93c-28.89-13.06-58.36-28.87-88.95-37.47c-60.11-16.88-128.08-24.06-190.27-24.82
		c-70.25-0.85-138.01,36.01-203.74,56.52c-73.59,22.96-136.56,68.76-209.57,92.86c-33.43,11.03-67.45,19.09-100.52,30.81
		c-17.6,6.23-35.53,12.67-53.51,17.68c-18.61,5.18-38.43,6.34-56.28,14.13c-19.432,8.479-49.807,7.979-78.76,8.181
		c-28.953-0.202-59.328,0.297-78.76-8.181c-17.85-7.79-37.67-8.95-56.28-14.13c-17.98-5.01-35.91-11.45-53.51-17.68
		c-33.07-11.72-67.09-19.78-100.52-30.81c-73.01-24.1-135.98-69.9-209.57-92.86c-65.73-20.51-133.49-57.37-203.74-56.52
		c-62.19,0.76-130.16,7.94-190.27,24.82c-30.59,8.6-60.06,24.41-88.95,37.47c-25.45,11.51-52.25,22.45-77.09,34.93
		c-24.82,12.47-49.35,25-74.31,37.34c-25.1,12.4-51.83,21.19-76.17,35.17c-27.52,15.8-53.02,34.13-82.63,46.07
		c-28.5,11.5-58.24,19.39-87.6,28.29c-60.94,18.47-116.43,48.76-179.78,58.97c-31.7,5.11-59.7,20.99-91.15,26.77
		c-29.31,5.38-59.47,10.54-89.07,13.84c-67.09,7.47-133.46,21.35-200.69,27.09c-19.954,1.707-39.926,2.063-59.91,1.721V2000h2000
		h2000v-146.849C3980.016,1853.493,3960.044,1853.136,3940.09,1851.43z"/>
	<path fill="#374DA8" d="M3978.32,1885.58c-17.1-0.11-31.57,4.96-48.09,7.55c-14.52,2.28-29.94-0.37-44.41-1.96
		c-35.9-3.92-70.72-1.91-105.5,7.86c-15.021,4.223-30.619,6.558-46.224,5.051c-11.709-1.131-20.024-5.395-30.427-9.995
		c-12.528-5.539-27.57-4.772-40.957-6.705c-15.836-2.286-31.557-5.292-47.369-7.727c-27.336-4.21-54.879-8.78-82.335-12.081
		c-26.508-3.187-53.786-1.606-80.031-6.513c-24.19-4.523-46.973-8.352-71.742-8.948c-33.522-0.807-64.316-9.231-96.042-19.615
		c-15.14-4.955-29.229-11.605-44.078-16.932c-13.076-4.691-26.167-8.34-39.071-13.821c-32.265-13.706-64.16-28.951-98.434-37.064
		c-14.342-3.395-28.501-6.399-42.418-11.402c-9.607-3.454-20.641-5.823-29.11-11.524c-7.743-5.213-18.791-6.989-28.072-9.205
		c-12.503-2.986-22.853-6.468-34.748-12.071c-12.423-5.851-25.487-8.563-38.775-11.921c-14.802-3.74-29.59-5.632-44.349-9.813
		c-12.989-3.679-25.416-2.848-38.742-2.856c-36.127-0.021-71.418-0.915-107.087,5.856c-25.068,4.759-49.613,10.556-74.185,17.42
		c-25.872,7.228-50.746,17.154-77.092,22.765c-37.075,7.897-78.158,12.729-115.685,4.51c-18.396-4.029-35.075-14.125-54.289-14.762
		c-16.121-0.534-31.991,1.703-48.215,0.155c-18.786-1.792-37.476-3.737-56.374-3.814c-38.753-0.157-78.74,6.231-111.808,27.62
		c-26.16,16.92-52.23,34.39-77.87,52.08c-23.27,16.06-43.8,35.29-68.84,48.76c-14.418,7.765-35.335,8.92-55.95,9.702
		c-20.615-0.782-41.532-1.937-55.95-9.702c-25.04-13.47-45.57-32.7-68.84-48.76c-25.64-17.69-51.71-35.16-77.87-52.08
		c-52.86-34.19-122.13-30.2-182.37-21.84c-67.12,9.32-132.63,20.81-200.45,25.23c-32.54,2.12-64.95,2.06-97.53,2.27
		c-33.17,0.21-65.68,2.41-97.86-6.99c-61.95-18.09-125.07-12.66-189.04-13.06c-31.59-0.19-62.66,0.12-93.81,5.94
		c-28.63,5.35-53.48,21.84-81.38,30.7c-27.17,8.62-51.92,22.36-78.41,32.63c-30.62,11.87-63.63,16.21-93.69,29.76
		c-28.99,13.06-56.78,32.36-89.57,34.06c-31.83,1.65-66.68-5.08-98.22-9.19c-64.2-8.37-134.35,4.58-193.88,29.6
		c-28.21,11.86-52,12.56-81.45,4.28c-34.78-9.77-69.6-11.78-105.5-7.86c-14.47,1.59-29.89,4.24-44.41,1.96
		c-16.52-2.59-30.99-7.66-48.09-7.55c-7.227,0.045-14.453,0.07-21.68,0.097V2000h2000h2000v-114.323
		C3992.773,1885.65,3985.547,1885.625,3978.32,1885.58z"/>
</g>
</svg>
