<?xml version="1.0" encoding="utf-8"?>
<!-- Generator: Adobe Illustrator 17.0.2, SVG Export Plug-In . SVG Version: 6.00 Build 0)  -->
<!DOCTYPE svg PUBLIC "-//W3C//DTD SVG 1.1//EN" "http://www.w3.org/Graphics/SVG/1.1/DTD/svg11.dtd">
<svg version="1.1" xmlns="http://www.w3.org/2000/svg" xmlns:xlink="http://www.w3.org/1999/xlink" x="0px" y="0px" width="1600px"
	 height="1600px" viewBox="0 0 1600 1600" enable-background="new 0 0 1600 1600" xml:space="preserve">
<g id="Layer_2">
	<circle fill="#FFFFFF" cx="1278.896" cy="1051.204" r="2.187"/>
	<circle fill="#FFFFFF" cx="1550.682" cy="1469.82" r="1.821"/>
	<circle fill="#FFFFFF" cx="1363.909" cy="869.167" r="1.44"/>
	<circle fill="#FFFFFF" cx="71.438" cy="1296.866" r="2.104"/>
	<circle fill="#FFFFFF" cx="951.299" cy="715.207" r="1.717"/>
	<circle fill="#FFFFFF" cx="647.481" cy="1488.131" r="2.319"/>
	<circle fill="#FFFFFF" cx="1408.637" cy="631.123" r="1.637"/>
	<circle fill="#FFFFFF" cx="530.29" cy="734.3" r="1.977"/>
	<circle fill="#FFFFFF" cx="1181.677" cy="1390.863" r="1.376"/>
	<circle fill="#FFFFFF" cx="1515.183" cy="1176.794" r="1.461"/>
	<circle fill="#FFFFFF" cx="221.198" cy="1425.385" r="2.028"/>
	<circle fill="#FFFFFF" cx="34.962" cy="785.522" r="2.297"/>
	<circle fill="#FFFFFF" cx="295.517" cy="571.307" r="2.02"/>
	<circle fill="#FFFFFF" cx="884.597" cy="1035.578" r="2.121"/>
	<circle fill="#FFFFFF" cx="304.501" cy="172.613" r="1.594"/>
	<circle fill="#FFFFFF" cx="211.725" cy="526.579" r="1.392"/>
	<circle fill="#FFFFFF" cx="322.227" cy="689.572" r="2.263"/>
	<circle fill="#FFFFFF" cx="284.481" cy="1024.445" r="1.476"/>
	<circle fill="#FFFFFF" cx="178.57" cy="1563.182" r="2.309"/>
	<circle fill="#FFFFFF" cx="590.545" cy="314.365" r="2.093"/>
	<circle fill="#FFFFFF" cx="1349.26" cy="257.967" r="1.648"/>
	<circle fill="#FFFFFF" cx="46.388" cy="1238.124" r="2.092"/>
	<circle fill="#FFFFFF" cx="958.916" cy="1550.682" r="2.12"/>
	<circle fill="#FFFFFF" cx="890.408" cy="147.172" r="1.442"/>
	<circle fill="#FFFFFF" cx="411.194" cy="854.762" r="2.224"/>
	<circle fill="#FFFFFF" cx="407.19" cy="140.385" r="2.364"/>
	<circle fill="#FFFFFF" cx="1543.406" cy="1268.935" r="2.269"/>
	<circle fill="#FFFFFF" cx="1375.872" cy="659.883" r="1.385"/>
	<circle fill="#FFFFFF" cx="463.1" cy="1307.559" r="1.477"/>
	<circle fill="#FFFFFF" cx="1057.796" cy="1107.944" r="1.284"/>
	<circle fill="#FFFFFF" cx="359.239" cy="1519.578" r="1.562"/>
	<circle fill="#FFFFFF" cx="235.896" cy="1103.403" r="1.355"/>
	<circle fill="#FFFFFF" cx="587.86" cy="823.365" r="1.406"/>
	<circle fill="#FFFFFF" cx="889.334" cy="432.63" r="1.866"/>
	<circle fill="#FFFFFF" cx="18.897" cy="782.104" r="2.078"/>
	<circle fill="#FFFFFF" cx="534.587" cy="658.419" r="1.752"/>
	<circle fill="#FFFFFF" cx="188.433" cy="16.114" r="1.683"/>
	<circle fill="#FFFFFF" cx="485.757" cy="1134.507" r="1.944"/>
	<circle fill="#FFFFFF" cx="835.67" cy="1295.938" r="1.447"/>
	<circle fill="#FFFFFF" cx="83.352" cy="634.053" r="1.733"/>
	<circle fill="#FFFFFF" cx="1113.999" cy="780.444" r="1.691"/>
	<circle fill="#FFFFFF" cx="1113.51" cy="133.012" r="1.677"/>
	<circle fill="#FFFFFF" cx="348.155" cy="1363.762" r="2.418"/>
	<circle fill="#FFFFFF" cx="785.424" cy="1100.034" r="1.575"/>
	<circle fill="#FFFFFF" cx="470.864" cy="362.56" r="1.881"/>
	<circle fill="#FFFFFF" cx="1157.994" cy="1128.257" r="1.466"/>
	<circle fill="#FFFFFF" cx="804.907" cy="827.418" r="2.358"/>
	<circle fill="#FFFFFF" cx="1201.99" cy="703.879" r="1.771"/>
	<circle fill="#FFFFFF" cx="1267.568" cy="1378.167" r="1.747"/>
	<circle fill="#FFFFFF" cx="1357.219" cy="741.282" r="2.132"/>
	<circle fill="#FFFFFF" cx="157.476" cy="1065.267" r="2.152"/>
	<circle fill="#FFFFFF" cx="890.408" cy="1222.303" r="1.616"/>
	<circle fill="#FFFFFF" cx="44.142" cy="1126.988" r="2.346"/>
	<circle fill="#FFFFFF" cx="581.707" cy="264.022" r="2.302"/>
	<circle fill="#FFFFFF" cx="513.834" cy="861.55" r="2.145"/>
	<circle fill="#FFFFFF" cx="1063.997" cy="1596.777" r="1.951"/>
	<circle fill="#FFFFFF" cx="1036.457" cy="1154.381" r="1.927"/>
	<circle fill="#FFFFFF" cx="1512.009" cy="168.56" r="2.353"/>
	<circle fill="#FFFFFF" cx="0.342" cy="1497.409" r="2.09"/>
	<circle fill="#FFFFFF" cx="1324.015" cy="603.925" r="2.321"/>
	<circle fill="#FFFFFF" cx="23.829" cy="409.583" r="1.334"/>
	<circle fill="#FFFFFF" cx="1562.352" cy="925.37" r="2.355"/>
	<circle fill="#FFFFFF" cx="383.557" cy="14.258" r="1.496"/>
	<circle fill="#FFFFFF" cx="1013.263" cy="909.745" r="2.202"/>
	<circle fill="#FFFFFF" cx="212.311" cy="151.323" r="1.509"/>
	<circle fill="#FFFFFF" cx="1201.892" cy="881.472" r="2.123"/>
	<circle fill="#FFFFFF" cx="1201.257" cy="1598.73" r="2.348"/>
	<circle fill="#FFFFFF" cx="141.704" cy="58.596" r="1.583"/>
	<circle fill="#FFFFFF" cx="101.126" cy="1549.608" r="2.246"/>
	<circle fill="#FFFFFF" cx="222.224" cy="347.716" r="2.075"/>
	<circle fill="#FFFFFF" cx="1552.831" cy="1239.1" r="1.834"/>
	<circle fill="#FFFFFF" cx="433.998" cy="1146.617" r="1.774"/>
	<circle fill="#FFFFFF" cx="1284.365" cy="134.77" r="2.033"/>
	<circle fill="#FFFFFF" cx="1302.384" cy="1045.491" r="1.725"/>
	<circle fill="#FFFFFF" cx="1099.155" cy="804.468" r="2.05"/>
	<circle fill="#FFFFFF" cx="1448.823" cy="1528.904" r="1.737"/>
	<circle fill="#FFFFFF" cx="136.479" cy="1243.739" r="1.882"/>
	<circle fill="#FFFFFF" cx="1019.709" cy="462.612" r="2.042"/>
	<circle fill="#FFFFFF" cx="621.845" cy="495.23" r="1.821"/>
	<circle fill="#FFFFFF" cx="319.785" cy="311.826" r="2.086"/>
	<circle fill="#FFFFFF" cx="132.768" cy="1412.25" r="1.726"/>
	<circle fill="#FFFFFF" cx="458.998" cy="668.917" r="2.245"/>
	<circle fill="#FFFFFF" cx="91.556" cy="415.394" r="1.37"/>
	<circle fill="#FFFFFF" cx="1269.13" cy="579.51" r="2.009"/>
	<circle fill="#FFFFFF" cx="753.49" cy="1465.035" r="2.294"/>
	<circle fill="#FFFFFF" cx="1167.37" cy="741.038" r="2.25"/>
	<circle fill="#FFFFFF" cx="996.222" cy="816.968" r="2.449"/>
	<circle fill="#FFFFFF" cx="242" cy="704.221" r="1.293"/>
	<circle fill="#FFFFFF" cx="1322.941" cy="1052.034" r="2.279"/>
	<circle fill="#FFFFFF" cx="1006.281" cy="346.495" r="1.354"/>
	<circle fill="#FFFFFF" cx="1278.066" cy="1566.356" r="2.179"/>
	<circle fill="#FFFFFF" cx="413.831" cy="291.659" r="1.444"/>
	<circle fill="#FFFFFF" cx="1332.56" cy="381.799" r="2.48"/>
	<circle fill="#FFFFFF" cx="451.039" cy="1237.489" r="1.871"/>
	<circle fill="#FFFFFF" cx="830.543" cy="582.049" r="1.975"/>
	<circle fill="#FFFFFF" cx="1518.748" cy="710.617" r="1.821"/>
	<circle fill="#FFFFFF" cx="398.743" cy="501.968" r="1.711"/>
	<circle fill="#FFFFFF" cx="286.239" cy="603.436" r="2.049"/>
	<circle fill="#FFFFFF" cx="1104.184" cy="1395.16" r="2.273"/>
	<circle fill="#FFFFFF" cx="1150.133" cy="156.401" r="2.3"/>
	<circle fill="#FFFFFF" cx="204.645" cy="676.144" r="2.421"/>
	<circle fill="#FFFFFF" cx="1248.769" cy="1433.686" r="1.985"/>
	<circle fill="#FFFFFF" cx="772.143" cy="780.541" r="1.956"/>
	<circle fill="#FFFFFF" cx="583.416" cy="1599.707" r="2.115"/>
	<circle fill="#FFFFFF" cx="376.72" cy="208.112" r="2.076"/>
	<circle fill="#FFFFFF" cx="967.315" cy="238.777" r="1.87"/>
	<circle fill="#FFFFFF" cx="1405.023" cy="211.237" r="1.95"/>
	<circle fill="#FFFFFF" cx="470.034" cy="1568.505" r="1.407"/>
	<circle fill="#FFFFFF" cx="245.174" cy="62.697" r="1.965"/>
	<circle fill="#FFFFFF" cx="349.034" cy="1282.07" r="1.277"/>
</g>
</svg>
